<mxfile host="65bd71144e">
    <diagram id="zHT41nX7iPg2SUS6fnQt" name="Страница 1">
        <mxGraphModel dx="1004" dy="489" grid="1" gridSize="10" guides="1" tooltips="1" connect="1" arrows="1" fold="1" page="1" pageScale="1" pageWidth="827" pageHeight="1169" math="0" shadow="0">
            <root>
                <mxCell id="0"/>
                <mxCell id="1" parent="0"/>
                <mxCell id="2" value="&lt;font style=&quot;font-size: 18px;&quot;&gt;Class Animals&lt;/font&gt;" style="swimlane;whiteSpace=wrap;html=1;startSize=30;" vertex="1" parent="1">
                    <mxGeometry x="280" y="50" width="200" height="70" as="geometry"/>
                </mxCell>
                <mxCell id="4" value="Class Pets" style="swimlane;whiteSpace=wrap;html=1;fontSize=18;startSize=30;" vertex="1" parent="1">
                    <mxGeometry x="120" y="200" width="200" height="70" as="geometry"/>
                </mxCell>
                <mxCell id="5" value="Class Pack Animals" style="swimlane;whiteSpace=wrap;html=1;fontSize=18;startSize=30;" vertex="1" parent="1">
                    <mxGeometry x="440" y="200" width="200" height="70" as="geometry"/>
                </mxCell>
                <mxCell id="6" value="" style="endArrow=classic;html=1;fontSize=18;entryX=0.25;entryY=1;entryDx=0;entryDy=0;exitX=0.459;exitY=0.018;exitDx=0;exitDy=0;exitPerimeter=0;" edge="1" parent="1" source="4" target="2">
                    <mxGeometry width="50" height="50" relative="1" as="geometry">
                        <mxPoint x="240" y="200" as="sourcePoint"/>
                        <mxPoint x="290" y="150" as="targetPoint"/>
                    </mxGeometry>
                </mxCell>
                <mxCell id="7" value="" style="endArrow=classic;html=1;fontSize=18;entryX=0.75;entryY=1;entryDx=0;entryDy=0;exitX=0.5;exitY=0;exitDx=0;exitDy=0;" edge="1" parent="1" source="5" target="2">
                    <mxGeometry width="50" height="50" relative="1" as="geometry">
                        <mxPoint x="490" y="270" as="sourcePoint"/>
                        <mxPoint x="540" y="220" as="targetPoint"/>
                    </mxGeometry>
                </mxCell>
                <mxCell id="8" value="Class Cat" style="swimlane;whiteSpace=wrap;html=1;fontSize=18;startSize=50;" vertex="1" parent="1">
                    <mxGeometry x="40" y="360" width="80" height="90" as="geometry"/>
                </mxCell>
                <mxCell id="9" value="Class Dog" style="swimlane;whiteSpace=wrap;html=1;fontSize=18;startSize=50;" vertex="1" parent="1">
                    <mxGeometry x="160" y="360" width="80" height="90" as="geometry"/>
                </mxCell>
                <mxCell id="10" value="Class Hamster" style="swimlane;whiteSpace=wrap;html=1;fontSize=18;startSize=50;" vertex="1" parent="1">
                    <mxGeometry x="280" y="360" width="80" height="90" as="geometry"/>
                </mxCell>
                <mxCell id="11" value="" style="endArrow=classic;html=1;fontSize=18;exitX=0.5;exitY=0;exitDx=0;exitDy=0;" edge="1" parent="1" source="8">
                    <mxGeometry width="50" height="50" relative="1" as="geometry">
                        <mxPoint x="490" y="280" as="sourcePoint"/>
                        <mxPoint x="160" y="270" as="targetPoint"/>
                    </mxGeometry>
                </mxCell>
                <mxCell id="12" value="" style="endArrow=classic;html=1;fontSize=18;" edge="1" parent="1">
                    <mxGeometry width="50" height="50" relative="1" as="geometry">
                        <mxPoint x="200" y="360" as="sourcePoint"/>
                        <mxPoint x="210" y="270" as="targetPoint"/>
                    </mxGeometry>
                </mxCell>
                <mxCell id="13" value="" style="endArrow=classic;html=1;fontSize=18;entryX=0.75;entryY=1;entryDx=0;entryDy=0;" edge="1" parent="1" target="4">
                    <mxGeometry width="50" height="50" relative="1" as="geometry">
                        <mxPoint x="320" y="360" as="sourcePoint"/>
                        <mxPoint x="370" y="310" as="targetPoint"/>
                    </mxGeometry>
                </mxCell>
                <mxCell id="14" value="Class Horse" style="swimlane;whiteSpace=wrap;html=1;fontSize=18;startSize=50;" vertex="1" parent="1">
                    <mxGeometry x="414" y="360" width="80" height="90" as="geometry"/>
                </mxCell>
                <mxCell id="15" value="Class Camel" style="swimlane;whiteSpace=wrap;html=1;fontSize=18;startSize=50;" vertex="1" parent="1">
                    <mxGeometry x="530" y="360" width="80" height="90" as="geometry"/>
                </mxCell>
                <mxCell id="16" value="Class Donkey&amp;nbsp;" style="swimlane;whiteSpace=wrap;html=1;fontSize=18;startSize=50;" vertex="1" parent="1">
                    <mxGeometry x="640" y="360" width="80" height="90" as="geometry"/>
                </mxCell>
                <mxCell id="17" value="" style="endArrow=classic;html=1;fontSize=18;entryX=0.25;entryY=1;entryDx=0;entryDy=0;" edge="1" parent="1" target="5">
                    <mxGeometry width="50" height="50" relative="1" as="geometry">
                        <mxPoint x="444" y="360" as="sourcePoint"/>
                        <mxPoint x="494" y="310" as="targetPoint"/>
                    </mxGeometry>
                </mxCell>
                <mxCell id="18" value="" style="endArrow=classic;html=1;fontSize=18;" edge="1" parent="1">
                    <mxGeometry width="50" height="50" relative="1" as="geometry">
                        <mxPoint x="680" y="360" as="sourcePoint"/>
                        <mxPoint x="600" y="270" as="targetPoint"/>
                    </mxGeometry>
                </mxCell>
                <mxCell id="19" value="" style="endArrow=classic;html=1;fontSize=18;entryX=0.5;entryY=1;entryDx=0;entryDy=0;exitX=0.5;exitY=0;exitDx=0;exitDy=0;" edge="1" parent="1" source="15" target="5">
                    <mxGeometry width="50" height="50" relative="1" as="geometry">
                        <mxPoint x="570" y="350" as="sourcePoint"/>
                        <mxPoint x="540" y="230" as="targetPoint"/>
                    </mxGeometry>
                </mxCell>
            </root>
        </mxGraphModel>
    </diagram>
</mxfile>